HIERARCHY
ROOT Hips
{
	OFFSET 0.000000 0.000000 0.000000
	CHANNELS 6 Xposition Yposition Zposition Zrotation Yrotation Xrotation 
	JOINT Spine1
	{
		OFFSET -0.013727 5.003763 -0.053727
		CHANNELS 3 Zrotation Yrotation Xrotation
		JOINT Spine2
		{
			OFFSET -0.000000 7.125302 -0.029825
			CHANNELS 3 Zrotation Yrotation Xrotation
			JOINT Chest
			{
				OFFSET -0.000001 7.550063 -0.815971
				CHANNELS 3 Zrotation Yrotation Xrotation
				JOINT Neck1
				{
					OFFSET -0.181676 26.311296 -0.553348
					CHANNELS 3 Zrotation Yrotation Xrotation
					JOINT Neck2
					{
						OFFSET -0.000003 7.709400 2.302585
						CHANNELS 3 Zrotation Yrotation Xrotation
						JOINT Head
						{
							OFFSET -0.000004 6.128913 1.953708
							CHANNELS 3 Zrotation Yrotation Xrotation
							JOINT HeadEnd
							{
								OFFSET 0.003598 16.065401 -1.835379
								CHANNELS 3 Zrotation Yrotation Xrotation
								End Site
								{
									OFFSET 0.000000 0.000000 0.000000
								}
							}
							JOINT Jaw
							{
								OFFSET 0.002637 0.475592 3.094941
								CHANNELS 3 Zrotation Yrotation Xrotation
								End Site
								{
									OFFSET 0.000000 0.000000 0.000000
								}
							}
							JOINT LeftEye
							{
								OFFSET 3.206381 5.380206 7.586883
								CHANNELS 3 Zrotation Yrotation Xrotation
								End Site
								{
									OFFSET 0.000000 0.000000 0.000000
								}
							}
							JOINT RightEye
							{
								OFFSET -3.222440 5.361867 7.558233
								CHANNELS 3 Zrotation Yrotation Xrotation
								End Site
								{
									OFFSET 0.000000 0.000000 0.000000
								}
							}
						}
					}
				}
				JOINT LeftShoulder
				{
					OFFSET 1.621652 23.237164 5.113413
					CHANNELS 3 Zrotation Yrotation Xrotation
					JOINT LeftArm
					{
						OFFSET 14.919845 -0.000001 -5.502326
						CHANNELS 3 Zrotation Yrotation Xrotation
						JOINT LeftForeArm
						{
							OFFSET 28.739309 0.000004 -0.002588
							CHANNELS 3 Zrotation Yrotation Xrotation
							JOINT LeftHand
							{
								OFFSET 27.093983 -0.000004 0.002610
								CHANNELS 3 Zrotation Yrotation Xrotation
								JOINT LeftHandThumb1
								{
									OFFSET 2.276480 -1.392046 3.191413
									CHANNELS 3 Zrotation Yrotation Xrotation
									JOINT LeftHandThumb2
									{
										OFFSET 4.012842 -1.828126 1.641655
										CHANNELS 3 Zrotation Yrotation Xrotation
										JOINT LeftHandThumb3
										{
											OFFSET 2.798517 0.000001 -0.000003
											CHANNELS 3 Zrotation Yrotation Xrotation
											JOINT LeftHandThumbEnd
											{
												OFFSET 3.180791 -0.000002 0.000003
												CHANNELS 3 Zrotation Yrotation Xrotation
												End Site
												{
													OFFSET 0.000000 0.000000 0.000000
												}
											}
										}
									}
								}
								JOINT LeftHandIndex1
								{
									OFFSET 3.247554 -0.531998 2.296169
									CHANNELS 3 Zrotation Yrotation Xrotation
									JOINT LeftHandIndex2
									{
										OFFSET 6.364579 0.012061 0.178600
										CHANNELS 3 Zrotation Yrotation Xrotation
										JOINT LeftHandIndex3
										{
											OFFSET 3.662366 0.000000 0.000000
											CHANNELS 3 Zrotation Yrotation Xrotation
											JOINT LeftHandIndex4
											{
												OFFSET 2.329243 0.000003 0.000003
												CHANNELS 3 Zrotation Yrotation Xrotation
												JOINT LeftHandIndexEnd
												{
													OFFSET 2.759619 -0.180538 -0.113024
													CHANNELS 3 Zrotation Yrotation Xrotation
													End Site
													{
														OFFSET 0.000000 0.000000 0.000000
													}
												}
											}
										}
									}
								}
								JOINT LeftHandMiddle1
								{
									OFFSET 3.163498 0.240982 1.000332
									CHANNELS 3 Zrotation Yrotation Xrotation
									JOINT LeftHandMiddle2
									{
										OFFSET 6.190779 -0.259275 -1.002548
										CHANNELS 3 Zrotation Yrotation Xrotation
										JOINT LeftHandMiddle3
										{
											OFFSET 4.356522 -0.000006 0.000000
											CHANNELS 3 Zrotation Yrotation Xrotation
											JOINT LeftHandMiddle4
											{
												OFFSET 2.996875 -0.000007 0.000001
												CHANNELS 3 Zrotation Yrotation Xrotation
												JOINT LeftHandMiddleEnd
												{
													OFFSET 2.304294 -0.294571 -0.031740
													CHANNELS 3 Zrotation Yrotation Xrotation
													End Site
													{
														OFFSET 0.000000 0.000000 0.000000
													}
												}
											}
										}
									}
								}
								JOINT LeftHandRing1
								{
									OFFSET 2.882642 -0.053650 -0.322543
									CHANNELS 3 Zrotation Yrotation Xrotation
									JOINT LeftHandRing2
									{
										OFFSET 5.854542 -0.486203 -1.373841
										CHANNELS 3 Zrotation Yrotation Xrotation
										JOINT LeftHandRing3
										{
											OFFSET 4.350581 0.000000 0.000004
											CHANNELS 3 Zrotation Yrotation Xrotation
											JOINT LeftHandRing4
											{
												OFFSET 2.651325 0.000008 0.000004
												CHANNELS 3 Zrotation Yrotation Xrotation
												JOINT LeftHandRingEnd
												{
													OFFSET 1.936111 0.077685 -0.000070
													CHANNELS 3 Zrotation Yrotation Xrotation
													End Site
													{
														OFFSET 0.000000 0.000000 0.000000
													}
												}
											}
										}
									}
								}
								JOINT LeftHandPinky1
								{
									OFFSET 2.865500 -0.310004 -1.600378
									CHANNELS 3 Zrotation Yrotation Xrotation
									JOINT LeftHandPinky2
									{
										OFFSET 5.087853 -1.331141 -1.771231
										CHANNELS 3 Zrotation Yrotation Xrotation
										JOINT LeftHandPinky3
										{
											OFFSET 3.070974 0.000003 0.000000
											CHANNELS 3 Zrotation Yrotation Xrotation
											JOINT LeftHandPinky4
											{
												OFFSET 1.549668 -0.000001 0.000001
												CHANNELS 3 Zrotation Yrotation Xrotation
												JOINT LeftHandPinkyEnd
												{
													OFFSET 1.944894 -0.157802 0.057218
													CHANNELS 3 Zrotation Yrotation Xrotation
													End Site
													{
														OFFSET 0.000000 0.000000 0.000000
													}
												}
											}
										}
									}
								}
							}
						}
					}
				}
				JOINT RightShoulder
				{
					OFFSET -1.380118 23.180307 5.214157
					CHANNELS 3 Zrotation Yrotation Xrotation
					JOINT RightArm
					{
						OFFSET -15.037197 0.000012 -5.545604
						CHANNELS 3 Zrotation Yrotation Xrotation
						JOINT RightForeArm
						{
							OFFSET -28.736639 0.000002 -0.002597
							CHANNELS 3 Zrotation Yrotation Xrotation
							JOINT RightHand
							{
								OFFSET -27.133617 0.000000 0.002613
								CHANNELS 3 Zrotation Yrotation Xrotation
								JOINT RightHandThumb1
								{
									OFFSET -2.274036 -1.383991 3.163127
									CHANNELS 3 Zrotation Yrotation Xrotation
									JOINT RightHandThumb2
									{
										OFFSET -4.011431 -1.827468 1.640914
										CHANNELS 3 Zrotation Yrotation Xrotation
										JOINT RightHandThumb3
										{
											OFFSET -2.794934 -0.000004 -0.000003
											CHANNELS 3 Zrotation Yrotation Xrotation
											JOINT RightHandThumbEnd
											{
												OFFSET -3.183854 0.000003 -0.000000
												CHANNELS 3 Zrotation Yrotation Xrotation
												End Site
												{
													OFFSET 0.000000 0.000000 0.000000
												}
											}
										}
									}
								}
								JOINT RightHandIndex1
								{
									OFFSET -3.253270 -0.520060 2.282866
									CHANNELS 3 Zrotation Yrotation Xrotation
									JOINT RightHandIndex2
									{
										OFFSET -6.341918 0.012473 0.178265
										CHANNELS 3 Zrotation Yrotation Xrotation
										JOINT RightHandIndex3
										{
											OFFSET -3.654875 -0.000009 -0.000001
											CHANNELS 3 Zrotation Yrotation Xrotation
											JOINT RightHandIndex4
											{
												OFFSET -2.327586 -0.000001 0.000001
												CHANNELS 3 Zrotation Yrotation Xrotation
												JOINT RightHandIndexEnd
												{
													OFFSET -2.761789 -0.180656 -0.113078
													CHANNELS 3 Zrotation Yrotation Xrotation
													End Site
													{
														OFFSET 0.000000 0.000000 0.000000
													}
												}
											}
										}
									}
								}
								JOINT RightHandMiddle1
								{
									OFFSET -3.168106 0.246593 1.001030
									CHANNELS 3 Zrotation Yrotation Xrotation
									JOINT RightHandMiddle2
									{
										OFFSET -6.180829 -0.258836 -1.000896
										CHANNELS 3 Zrotation Yrotation Xrotation
										JOINT RightHandMiddle3
										{
											OFFSET -4.348907 0.000000 -0.000001
											CHANNELS 3 Zrotation Yrotation Xrotation
											JOINT RightHandMiddle4
											{
												OFFSET -3.000242 -0.000005 -0.000002
												CHANNELS 3 Zrotation Yrotation Xrotation
												JOINT RightHandMiddleEnd
												{
													OFFSET -2.302518 -0.294370 -0.031706
													CHANNELS 3 Zrotation Yrotation Xrotation
													End Site
													{
														OFFSET 0.000000 0.000000 0.000000
													}
												}
											}
										}
									}
								}
								JOINT RightHandRing1
								{
									OFFSET -2.885695 -0.067952 -0.308858
									CHANNELS 3 Zrotation Yrotation Xrotation
									JOINT RightHandRing2
									{
										OFFSET -5.854197 -0.486132 -1.373732
										CHANNELS 3 Zrotation Yrotation Xrotation
										JOINT RightHandRing3
										{
											OFFSET -4.338814 -0.000004 -0.000000
											CHANNELS 3 Zrotation Yrotation Xrotation
											JOINT RightHandRing4
											{
												OFFSET -2.654906 -0.000003 0.000004
												CHANNELS 3 Zrotation Yrotation Xrotation
												JOINT RightHandRingEnd
												{
													OFFSET -1.933570 0.077522 -0.000053
													CHANNELS 3 Zrotation Yrotation Xrotation
													End Site
													{
														OFFSET 0.000000 0.000000 0.000000
													}
												}
											}
										}
									}
								}
								JOINT RightHandPinky1
								{
									OFFSET -2.866430 -0.342799 -1.584145
									CHANNELS 3 Zrotation Yrotation Xrotation
									JOINT RightHandPinky2
									{
										OFFSET -5.091371 -1.332054 -1.772385
										CHANNELS 3 Zrotation Yrotation Xrotation
										JOINT RightHandPinky3
										{
											OFFSET -3.062666 -0.000006 0.000000
											CHANNELS 3 Zrotation Yrotation Xrotation
											JOINT RightHandPinky4
											{
												OFFSET -1.546527 0.000005 -0.000002
												CHANNELS 3 Zrotation Yrotation Xrotation
												JOINT RightHandPinkyEnd
												{
													OFFSET -1.945122 -0.157721 0.057211
													CHANNELS 3 Zrotation Yrotation Xrotation
													End Site
													{
														OFFSET 0.000000 0.000000 0.000000
													}
												}
											}
										}
									}
								}
							}
						}
					}
				}
			}
		}
	}
	JOINT LeftLeg
	{
		OFFSET 10.043214 -8.434525 2.595655
		CHANNELS 3 Zrotation Yrotation Xrotation
		JOINT LeftShin
		{
			OFFSET -0.000001 -43.221752 -0.802913
			CHANNELS 3 Zrotation Yrotation Xrotation
			JOINT LeftFoot
			{
				OFFSET 0.000002 -42.155094 -3.481523
				CHANNELS 3 Zrotation Yrotation Xrotation
				JOINT LeftToeBase
				{
					OFFSET -0.000000 -5.059474 13.231529
					CHANNELS 3 Zrotation Yrotation Xrotation
					JOINT LeftToeEnd
					{
						OFFSET -0.009607 -1.647616 6.513017
						CHANNELS 3 Zrotation Yrotation Xrotation
						End Site
						{
							OFFSET 0.000000 0.000000 0.000000
						}
					}
				}
			}
		}
	}
	JOINT RightLeg
	{
		OFFSET -10.047278 -8.295259 2.620317
		CHANNELS 3 Zrotation Yrotation Xrotation
		JOINT RightShin
		{
			OFFSET 0.000001 -43.362209 -0.805556
			CHANNELS 3 Zrotation Yrotation Xrotation
			JOINT RightFoot
			{
				OFFSET 0.000003 -42.117393 -3.478399
				CHANNELS 3 Zrotation Yrotation Xrotation
				JOINT RightToeBase
				{
					OFFSET -0.000001 -5.079609 13.284196
					CHANNELS 3 Zrotation Yrotation Xrotation
					JOINT RightToeEnd
					{
						OFFSET 0.009532 -1.634383 6.460591
						CHANNELS 3 Zrotation Yrotation Xrotation
						End Site
						{
							OFFSET 0.000000 0.000000 0.000000
						}
					}
				}
			}
		}
	}
}
MOTION
Frames: 4
Frame Time: 0.033333
-91.408241 94.011154 3.658424 -2.639515 -2.670851 -2.092924 -0.896281 -0.122055 3.386692 -0.999453 -1.456290 -3.185190 -0.447781 -3.749072 15.242811 -5.745696 6.420378 11.337432 1.700909 9.435863 -3.506852 -1.848311 10.014388 -12.103867 0.000077 -0.000022 0.000006 0.008653 -0.057367 -0.001878 0.716394 -3.798364 -10.685407 -0.703574 3.668618 -10.660899 6.385181 -13.493599 7.713767 -14.092749 -33.992489 -62.565392 178.544907 -63.374275 -179.045822 5.596730 -4.152154 0.036053 -5.882101 9.861279 0.702590 -10.936858 -0.360573 7.156198 -0.000000 8.774814 -0.000001 -16.748489 17.420935 5.740981 -1.844031 2.498503 -2.507276 -10.163589 4.678940 4.621104 -20.975996 -0.000003 0.000000 -21.226254 2.451693 -3.593995 0.000000 -0.000006 -0.000000 -1.362680 2.240798 -0.746324 -21.334888 0.584910 3.008320 -13.821195 -0.000003 0.000002 -23.887131 -0.249078 -0.839482 -60.480610 2.296980 -1.331817 -0.294024 1.679686 0.833255 -14.218190 0.093215 1.300579 -34.212006 -0.287562 0.967170 -20.033180 0.964535 1.212842 -0.000000 0.000001 -0.000000 -3.440383 0.788234 0.501656 -15.928171 -3.167306 2.999704 -6.338817 -0.000001 0.000001 -18.123411 3.648178 -4.905662 -0.000005 -0.000000 -0.000002 4.025677 3.522949 11.414177 58.722656 78.285446 13.747177 179.426514 41.694271 179.824722 -9.351910 -0.961221 -1.697588 2.243539 -5.255033 -3.180155 14.282878 -0.826592 6.952495 -0.000001 -12.690591 -0.000001 15.404379 -17.571451 2.603328 1.665666 -1.955920 -2.878295 4.727793 -4.170583 4.993918 11.020509 0.000003 0.000000 12.109029 -3.735709 -2.866779 0.000001 -0.000000 -0.000000 1.291984 -1.928548 -1.498088 14.800114 0.567467 3.865604 14.242553 -1.341735 -6.660649 19.631939 0.143925 -0.648243 48.691772 -0.845594 -6.173369 0.353027 -1.511150 -0.031941 20.222771 3.684307 2.316630 18.787245 0.000005 0.000002 10.751610 -0.479868 1.397904 -0.000000 -0.000001 0.000000 3.273806 0.305947 -0.580110 21.486790 11.830363 2.266133 8.162914 0.000002 0.000000 18.399050 -3.798978 -4.940567 0.000003 0.000000 -0.000001 13.922813 8.729814 -27.164877 -0.225302 -0.517657 33.843880 -12.502906 -4.445750 -1.658164 1.634083 -1.872198 0.381910 0.000000 -0.000000 0.000002 -7.958852 -5.284724 -11.079569 0.211515 0.462207 35.596188 15.428731 5.727856 -19.066530 -1.447683 1.087588 -0.176054 -0.000000 -0.000000 -0.000001 
-91.702637 94.149277 3.824794 -2.507108 -2.313512 -2.095434 -0.864369 -0.130818 3.316491 -0.982744 -1.504106 -3.201912 -0.391733 -3.820822 15.230291 -5.699653 6.377670 11.351120 1.667831 9.329070 -3.510216 -2.023258 9.879535 -12.134571 0.000077 -0.000022 0.000006 0.010831 -0.074662 -0.001301 0.720837 -3.813671 -10.687405 -0.702848 3.666286 -10.667264 6.418255 -13.590909 7.697304 -14.491451 -34.208076 -62.415298 178.492645 -63.189007 -179.004501 5.538824 -4.298635 0.225540 -5.882100 9.861278 0.702589 -10.936856 -0.360574 7.156196 0.000000 8.774812 -0.000002 -16.725273 17.434973 5.752271 -1.844030 2.498502 -2.507277 -10.163588 4.678941 4.621104 -20.975990 -0.000003 0.000000 -21.226246 2.451691 -3.593995 0.000000 -0.000007 -0.000000 -1.362682 2.240797 -0.746322 -21.334888 0.584908 3.008319 -13.821191 -0.000002 0.000002 -23.887123 -0.249078 -0.839482 -60.535458 2.305190 -1.332410 -0.294025 1.679686 0.833256 -14.218192 0.093215 1.300579 -34.211998 -0.287563 0.967166 -20.033178 0.964534 1.212841 -0.000000 0.000001 -0.000000 -3.440384 0.788233 0.501655 -15.928164 -3.167305 2.999704 -6.338812 -0.000002 0.000001 -18.123413 3.648178 -4.905663 -0.000005 -0.000001 -0.000002 4.041440 3.467586 11.367373 57.839157 78.660973 12.875702 179.550903 41.713326 179.901016 -9.360299 -0.864962 -1.520766 2.243539 -5.255033 -3.180155 14.282875 -0.826594 6.952496 -0.000003 -12.690590 0.000001 15.483374 -17.565258 2.587872 1.665665 -1.955919 -2.878297 4.727794 -4.170582 4.993918 11.020510 0.000003 0.000000 12.109028 -3.735709 -2.866779 0.000001 0.000000 -0.000000 1.291983 -1.928548 -1.498088 14.800114 0.567468 3.865605 14.242554 -1.341735 -6.660649 19.631939 0.143926 -0.648242 48.702168 -0.834046 -6.172566 0.353028 -1.511150 -0.031941 20.222765 3.684304 2.316628 18.787243 0.000004 -0.000000 10.751610 -0.479869 1.397904 -0.000000 -0.000001 0.000000 3.273803 0.305947 -0.580110 21.486786 11.830362 2.266131 8.162915 0.000001 0.000001 18.399050 -3.798981 -4.940567 0.000003 -0.000001 -0.000001 13.909146 8.551975 -26.771721 -0.222149 -0.522832 33.072945 -12.703038 -4.514928 -1.293333 1.634386 -1.868757 0.358991 0.000000 -0.000000 0.000002 -7.869719 -5.226666 -10.705012 0.202443 0.447514 35.255249 15.159857 5.262168 -19.155342 -1.442850 1.083895 -0.168242 -0.000000 -0.000000 -0.000001 
-91.931000 94.273796 4.002216 -2.362825 -2.029263 -2.071578 -0.842228 -0.147718 3.244816 -0.959202 -1.537283 -3.220575 -0.322554 -3.863265 15.182277 -5.663880 6.352974 11.341106 1.656696 9.190125 -3.511906 -2.196669 9.787933 -12.180960 0.000077 -0.000022 0.000006 0.013971 -0.087836 -0.001251 0.722530 -3.822527 -10.684171 -0.701164 3.651301 -10.661050 6.437655 -13.701914 7.722359 -14.881348 -34.371853 -62.184551 178.424515 -63.043858 -178.900650 5.465029 -4.438116 0.396717 -5.882099 9.861278 0.702590 -10.936858 -0.360574 7.156197 -0.000001 8.774815 -0.000001 -16.714241 17.451487 5.796591 -1.844031 2.498502 -2.507276 -10.163590 4.678941 4.621104 -20.975992 -0.000004 0.000002 -21.226250 2.451694 -3.593992 0.000000 -0.000006 -0.000000 -1.362680 2.240796 -0.746324 -21.334887 0.584910 3.008321 -13.821197 -0.000001 0.000003 -23.887131 -0.249077 -0.839480 -60.623718 2.324116 -1.325831 -0.294024 1.679686 0.833255 -14.218195 0.093214 1.300579 -34.211998 -0.287561 0.967170 -20.033176 0.964536 1.212841 -0.000000 0.000001 -0.000000 -3.440385 0.788233 0.501655 -15.928167 -3.167307 2.999702 -6.338817 -0.000002 0.000002 -18.123413 3.648178 -4.905659 -0.000005 -0.000000 -0.000002 4.035143 3.380606 11.324565 57.673897 79.010773 12.550554 179.554352 41.697140 179.940262 -9.343733 -0.701047 -1.512882 2.243540 -5.255033 -3.180155 14.282873 -0.826594 6.952495 -0.000003 -12.690590 0.000002 15.558126 -17.582441 2.557487 1.665664 -1.955920 -2.878296 4.727793 -4.170583 4.993919 11.020510 0.000002 -0.000002 12.109031 -3.735710 -2.866780 0.000002 0.000000 0.000000 1.291986 -1.928547 -1.498090 14.800109 0.567467 3.865604 14.242553 -1.341735 -6.660650 19.631937 0.143925 -0.648245 48.695232 -0.831759 -6.194283 0.353029 -1.511149 -0.031940 20.222767 3.684305 2.316626 18.787243 0.000003 -0.000002 10.751610 -0.479868 1.397903 -0.000000 -0.000001 -0.000000 3.273803 0.305947 -0.580111 21.486792 11.830362 2.266129 8.162912 -0.000001 -0.000000 18.399050 -3.798977 -4.940569 0.000003 -0.000002 -0.000001 13.840446 8.404040 -26.366467 -0.211844 -0.537283 32.286404 -12.845982 -4.538085 -1.080958 1.634553 -1.869192 0.315191 0.000000 -0.000000 0.000002 -7.836081 -5.161371 -10.328567 0.188110 0.433696 34.818382 14.908055 4.854578 -19.289167 -1.447111 1.087269 -0.163546 -0.000000 -0.000000 -0.000001 
-92.041740 94.414459 4.137456 -2.214103 -1.797851 -2.041685 -0.819834 -0.165101 3.176202 -0.934407 -1.562350 -3.237177 -0.262281 -3.907594 15.145386 -5.646433 6.323422 11.303326 1.650192 9.090437 -3.504359 -2.321369 9.706204 -12.167017 0.000077 -0.000023 0.000006 0.014887 -0.087860 0.002027 0.723802 -3.820384 -10.682855 -0.697916 3.650546 -10.656697 6.462934 -13.779150 7.750184 -15.228432 -34.562321 -61.969051 178.565323 -62.946400 -178.946152 5.412971 -4.510326 0.452877 -5.882102 9.861277 0.702590 -10.936858 -0.360574 7.156198 -0.000001 8.774814 -0.000002 -16.684797 17.498875 5.819364 -1.844033 2.498502 -2.507274 -10.163589 4.678941 4.621104 -20.975992 -0.000003 0.000001 -21.226254 2.451692 -3.593995 0.000000 -0.000007 -0.000000 -1.362681 2.240797 -0.746323 -21.334892 0.584909 3.008321 -13.821197 -0.000002 0.000001 -23.887129 -0.249078 -0.839482 -60.636379 2.336645 -1.334960 -0.294025 1.679686 0.833255 -14.218194 0.093213 1.300578 -34.211998 -0.287561 0.967168 -20.033176 0.964536 1.212841 -0.000000 0.000001 -0.000000 -3.440384 0.788233 0.501655 -15.928167 -3.167305 2.999705 -6.338816 -0.000000 0.000001 -18.123415 3.648177 -4.905663 -0.000004 -0.000002 -0.000002 4.023184 3.304534 11.262220 57.323383 79.301300 11.984578 179.562698 41.650272 179.964691 -9.359501 -0.500864 -1.678356 2.243540 -5.255032 -3.180157 14.282879 -0.826594 6.952495 -0.000005 -12.690586 0.000002 15.587923 -17.575426 2.555464 1.665664 -1.955919 -2.878298 4.727795 -4.170582 4.993919 11.020512 0.000002 -0.000002 12.109030 -3.735708 -2.866780 0.000001 0.000000 0.000000 1.291984 -1.928546 -1.498088 14.800111 0.567468 3.865601 14.242554 -1.341733 -6.660649 19.631941 0.143925 -0.648245 48.648067 -0.835809 -6.171814 0.353030 -1.511149 -0.031939 20.222773 3.684305 2.316625 18.787247 0.000005 -0.000001 10.751610 -0.479868 1.397904 -0.000000 -0.000001 0.000000 3.273804 0.305947 -0.580109 21.486790 11.830362 2.266129 8.162915 -0.000000 0.000000 18.399052 -3.798978 -4.940567 0.000003 -0.000001 -0.000001 13.693893 8.270838 -26.028221 -0.196096 -0.540482 31.591734 -12.901701 -4.503973 -0.802387 1.635634 -1.873417 0.273761 0.000000 -0.000000 0.000002 -7.888036 -5.111652 -9.989220 0.186342 0.445209 34.346210 14.750250 4.482528 -19.250099 -1.452238 1.080227 -0.196389 -0.000000 -0.000000 -0.000001 
